<svg xmlns:xlink="http://www.w3.org/1999/xlink" xmlns="http://www.w3.org/2000/svg" width="62" height="45" viewBox="0 0 62 45" class="sc-gsTCUz dFfFa-d jss809"><g fill="none" fill-rule="evenodd"><path stroke="#D1CDC7" stroke-linecap="square" d="M0.5 0L0.5 43.237" transform="translate(1 1)" data-darkreader-inline-stroke="" style="--darkreader-inline-stroke: var(--darkreader-text--dividerColor, #e8e6e3);" fill="none"></path><path stroke="#D1CDC7" stroke-dasharray="5 5" stroke-linecap="round" d="M0.462 23L60 23" transform="translate(1 1)" data-darkreader-inline-stroke="" style="--darkreader-inline-stroke: var(--darkreader-text--dividerColor, #e8e6e3);" fill="none"></path><g stroke-width="2px" fill="none"><path stroke="#63FCB7" d="M0 28.5L5.75 13" transform="translate(1 1) matrix(1 0 0 -1 1.918 36)" data-darkreader-inline-stroke="" style="--darkreader-inline-stroke: var(--darkreader-text--profitColor, #e8e6e3);" fill="none" stroke-width="2px"></path><path stroke="#63FCB7" d="M47.521 28.5L52.534 13" transform="translate(1 1) matrix(1 0 0 -1 1.918 36) matrix(-1 0 0 1 100.055 0)" data-darkreader-inline-stroke="" style="--darkreader-inline-stroke: var(--darkreader-text--profitColor, #e8e6e3);" fill="none" stroke-width="2px"></path><path stroke="#FF7044" d="M5.75 13L10.325 0 43.61 0 47.521 13" transform="translate(1 1) matrix(1 0 0 -1 1.918 36)" data-darkreader-inline-stroke="" style="--darkreader-inline-stroke: var(--darkreader-text--lossColor, #e8e6e3);" fill="none" stroke-width="2px"></path></g></g></svg>