<svg xmlns:xlink="http://www.w3.org/1999/xlink" xmlns="http://www.w3.org/2000/svg" width="62" height="45" viewBox="0 0 62 45" class="sc-gsTCUz dFfFa-d jss809"><g fill="none" fill-rule="evenodd"><path stroke="#D1CDC7" stroke-linecap="square" d="M0.5 0L0.5 43.237" transform="translate(1 1)" data-darkreader-inline-stroke="" style="--darkreader-inline-stroke: var(--darkreader-text--dividerColor, #e8e6e3);" fill="none"></path><path stroke="#D1CDC7" stroke-dasharray="5 5" stroke-linecap="round" d="M0.462 19L60 19" transform="translate(1 1)" data-darkreader-inline-stroke="" style="--darkreader-inline-stroke: var(--darkreader-text--dividerColor, #e8e6e3);" fill="none"></path><g stroke-width="2px" fill="none"><path stroke="#63FCB7" d="M0 28.5L12.418 28.5 16 19" transform="translate(1 1) matrix(1 0 0 -1 .5 38)" data-darkreader-inline-stroke="" style="--darkreader-inline-stroke: var(--darkreader-text--profitColor, #e8e6e3);" fill="none" stroke-width="2px"></path><path stroke="#63FCB7" d="M40 28.5L52.418 28.5 56 19" transform="translate(1 1) matrix(1 0 0 -1 .5 38) matrix(-1 0 0 1 96 0)" data-darkreader-inline-stroke="" style="--darkreader-inline-stroke: var(--darkreader-text--profitColor, #e8e6e3);" fill="none" stroke-width="2px"></path><path stroke="#FF7044" d="M16 19L22.744 0 34.028 0 40 19" transform="translate(1 1) matrix(1 0 0 -1 .5 38)" data-darkreader-inline-stroke="" style="--darkreader-inline-stroke: var(--darkreader-text--lossColor, #e8e6e3);" fill="none" stroke-width="2px"></path></g></g></svg>