<svg xmlns:xlink="http://www.w3.org/1999/xlink" xmlns="http://www.w3.org/2000/svg" width="62" height="45" viewBox="0 0 62 45" class="sc-gsTCUz dFfFa-d jss809"><g fill="none" fill-rule="evenodd"><path stroke="#E8E6E3" stroke-linecap="square" d="M0.5 0L0.5 43.237" transform="translate(1 1)" data-darkreader-inline-stroke="" style="--darkreader-inline-stroke: var(--darkreader-text--dividerColor, #e8e6e3);" fill="none"></path><path stroke="#E8E6E3" stroke-dasharray="5 5" stroke-linecap="round" d="M0.462 23L60 23" transform="translate(1 1)" data-darkreader-inline-stroke="" style="--darkreader-inline-stroke: var(--darkreader-text--dividerColor, #e8e6e3);" fill="none"></path><g stroke-width="2px" fill="none"><path stroke="#FF7044" d="M0 33L7.936 23.988 13.985 16.988" transform="translate(1 1) translate(0 6)" data-darkreader-inline-stroke="" style="--darkreader-inline-stroke: var(--darkreader-text--lossColor, #e8e6e3);" fill="none" stroke-width="2px"></path><path stroke="#63FCB7" d="M13.985 16.988L29 0" transform="translate(1 1) translate(0 6)" data-darkreader-inline-stroke="" style="--darkreader-inline-stroke: var(--darkreader-text--profitColor, #e8e6e3);" fill="none" stroke-width="2px"></path><g fill="none" stroke-width="2px"><path stroke="#FF7044" d="M0 33L7.936 23.988 13.985 16.988" transform="translate(1 1) translate(0 6) matrix(-1 0 0 1 57 0)" data-darkreader-inline-stroke="" style="--darkreader-inline-stroke: var(--darkreader-text--lossColor, #e8e6e3);" fill="none" stroke-width="2px"></path><path stroke="#63FCB7" d="M13.985 16.988L29 0" transform="translate(1 1) translate(0 6) matrix(-1 0 0 1 57 0)" data-darkreader-inline-stroke="" style="--darkreader-inline-stroke: var(--darkreader-text--profitColor, #e8e6e3);" fill="none" stroke-width="2px"></path></g></g></g></svg>